<?xml version="1.0" encoding="utf-8"?>
<!-- Generator: Adobe Illustrator 16.0.0, SVG Export Plug-In . SVG Version: 6.00 Build 0)  -->
<!DOCTYPE svg PUBLIC "-//W3C//DTD SVG 1.1//EN" "http://www.w3.org/Graphics/SVG/1.1/DTD/svg11.dtd">
<svg version="1.1" id="Layer_1" xmlns="http://www.w3.org/2000/svg" xmlns:xlink="http://www.w3.org/1999/xlink" x="0px" y="0px"
	 width="66.752px" height="66.756px" viewBox="0 0 66.752 66.756" enable-background="new 0 0 66.752 66.756" xml:space="preserve">
<path fill="#401E13" d="M54.612,63.713c0,0.916-0.008,1.832,0.004,2.747c0.005,0.234-0.068,0.32-0.297,0.287
	c-0.066-0.01-0.137-0.001-0.204-0.001c-13.826,0-27.652-0.004-41.479,0.01c-0.403,0-0.527-0.082-0.508-0.502
	c0.038-0.845,0.01-1.692,0.01-2.541l0.003-0.003c3.035-0.003,6.07-0.005,9.106-0.009c2.018,0,4.035-0.001,6.054-0.001
	c1.017,0,2.032,0,3.047,0c1.006-0.001,2.013-0.001,3.02-0.002c0.888,0.002,1.775-0.006,2.662,0.012
	c0.275,0.006,0.379-0.063,0.378-0.361c-0.009-3.795-0.011-7.593,0.001-11.39c0.001-0.317-0.105-0.388-0.4-0.381
	c-0.764,0.019-1.527-0.003-2.293,0.012c-0.269,0.005-0.355-0.082-0.352-0.351c0.011-0.9,0-1.803-0.002-2.704
	c0.005-0.897,0.021-1.798,0.007-2.694c-0.004-0.271,0.081-0.342,0.343-0.337c0.79,0.017,1.58-0.006,2.37,0.015
	c0.276,0.006,0.337-0.09,0.333-0.349c-0.016-0.897-0.007-1.797-0.007-2.694c0.899,0,1.798,0.01,2.696-0.004
	c0.263-0.005,0.351,0.063,0.345,0.336c-0.015,0.897,0,1.797,0.005,2.696c0,2.026,0,4.054,0,6.08c0,2.019,0,4.036,0,6.054
	c0,1.016,0,2.031,0,3.047c-0.004,0.914,0.001,1.826-0.016,2.738c-0.004,0.238,0.076,0.295,0.302,0.293
	c1.921-0.011,3.843-0.013,5.764-0.016c1.017,0,2.031,0,3.047,0c1.007,0,2.015,0.001,3.021,0.001
	c1.014,0.004,2.025,0.006,3.039,0.009L54.612,63.713z"/>
<path fill="#401E13" d="M51.575,33.378c0.915-0.001,1.83,0.005,2.746-0.008c0.229-0.003,0.295,0.058,0.295,0.292
	c-0.006,4.862-0.006,9.728,0,14.59c0,0.229-0.055,0.302-0.291,0.297c-0.915-0.014-1.83-0.005-2.745-0.004l-0.004-0.003
	c-0.002-1.014-0.007-2.025-0.009-3.04c0.004-0.163,0.01-0.325,0.01-0.489c0.002-3.881,0.003-7.761,0.003-11.64L51.575,33.378z"/>
<path fill="#401E13" d="M27.313,3.042c-0.001-0.916,0.004-1.831-0.009-2.747C27.3,0.066,27.361,0,27.596,0
	c3.854,0.007,7.708,0.007,11.561,0c0.234,0,0.296,0.066,0.292,0.295c-0.013,0.916-0.009,1.831-0.009,2.747l0.008-0.006
	c-4.049,0-8.095,0-12.143,0L27.313,3.042z"/>
<path fill="#401E13" d="M15.172,48.545c-0.915-0.001-1.83-0.01-2.744,0.004c-0.237,0.005-0.292-0.067-0.292-0.297
	c0.006-3.853,0.006-7.704,0-11.558c0-0.233,0.067-0.295,0.295-0.291c0.916,0.014,1.831,0.008,2.746,0.009l-0.005-0.007
	c0.004,3.033,0.008,6.064,0.013,9.097c-0.003,1.015-0.007,2.026-0.009,3.04L15.172,48.545z"/>
<path fill="#401E13" d="M3.043,9.109C3.042,8.194,3.047,7.278,3.034,6.363C3.031,6.134,3.093,6.067,3.326,6.067
	c2.843,0.008,5.685,0.008,8.526,0c0.234,0,0.296,0.066,0.293,0.295c-0.015,0.916-0.008,1.831-0.009,2.746l0.007-0.006
	c-3.036,0-6.071,0-9.108,0L3.043,9.109z"/>
<path fill="#401E13" d="M54.615,9.109c-0.001-0.915,0.006-1.831-0.009-2.746c-0.004-0.229,0.059-0.296,0.293-0.295
	c2.842,0.008,5.684,0.008,8.524,0c0.233,0,0.296,0.066,0.292,0.295c-0.013,0.916-0.008,1.831-0.009,2.746l0.008-0.006
	c-3.036,0-6.071,0-9.106,0L54.615,9.109z"/>
<path fill="#401E13" d="M12.139,63.713c-0.914-0.001-1.83-0.008-2.745,0.005c-0.234,0.004-0.293-0.066-0.291-0.296
	c0.006-2.841,0.006-5.68,0-8.521c-0.002-0.229,0.057-0.299,0.291-0.297c0.915,0.013,1.831,0.004,2.745,0.004l0.003,0.004
	c0.003,1.013,0.006,2.027,0.009,3.041c0,1.004,0,2.011,0,3.018c-0.003,1.014-0.006,2.025-0.009,3.039L12.139,63.713z"/>
<path fill="#401E13" d="M21.247,6.077c-0.003-0.912,0.007-1.824-0.013-2.736c-0.006-0.262,0.078-0.31,0.32-0.308
	c1.919,0.011,3.839,0.008,5.758,0.009l-0.008-0.006c0.001,0.9-0.008,1.802,0.01,2.703c0.006,0.269-0.073,0.344-0.341,0.34
	c-0.901-0.012-1.802,0.002-2.702,0.007c-1.013-0.006-2.023-0.012-3.034-0.018L21.247,6.077z"/>
<path fill="#401E13" d="M39.438,3.042c1.92-0.001,3.84,0.002,5.758-0.009c0.242-0.001,0.326,0.046,0.32,0.308
	c-0.021,0.912-0.011,1.824-0.014,2.736l0.012-0.01c-1.013,0.006-2.021,0.012-3.035,0.018c-0.914-0.004-1.828-0.016-2.742-0.008
	c-0.231,0.002-0.303-0.065-0.299-0.298c0.014-0.915,0.006-1.83,0.008-2.744L39.438,3.042z"/>
<path fill="#401E13" d="M15.179,9.111c-0.001-0.913,0.008-1.825-0.012-2.736c-0.006-0.264,0.08-0.309,0.321-0.308
	c1.92,0.011,3.839,0.009,5.759,0.01l-0.01-0.01c-0.002,1.013-0.003,2.025-0.004,3.037l0.006-0.006
	C19.216,9.1,17.192,9.1,15.169,9.102L15.179,9.111z"/>
<path fill="#401E13" d="M45.505,6.077c1.92-0.001,3.84,0.001,5.76-0.01c0.24-0.001,0.326,0.044,0.32,0.308
	c-0.02,0.912-0.011,1.824-0.012,2.736l0.01-0.01c-2.023,0.001-4.049,0.003-6.073,0.005c0.003-1.014,0.005-2.026,0.005-3.04
	L45.505,6.077z"/>
<path fill="#401E13" d="M63.709,12.136c0.001,1.919-0.001,3.837,0.009,5.756c0.002,0.24-0.042,0.328-0.307,0.321
	c-0.912-0.019-1.824-0.009-2.735-0.01l0.007,0.007c-0.002-1.912,0.004-3.823-0.009-5.735c-0.003-0.266,0.069-0.347,0.339-0.342
	c0.9,0.017,1.803,0.009,2.704,0.009L63.709,12.136z"/>
<path fill="#401E13" d="M9.109,21.238c-0.912,0-1.823-0.009-2.733,0.01c-0.266,0.005-0.31-0.082-0.309-0.322
	c0.011-1.918,0.008-3.837,0.009-5.756l-0.007,0.006c1.013-0.001,2.026-0.003,3.038-0.005c-0.001,2.024-0.002,4.049-0.004,6.073
	L9.109,21.238z"/>
<path fill="#401E13" d="M15.177,36.413c-0.001-1.905,0.003-3.811-0.01-5.715c-0.001-0.276,0.052-0.371,0.349-0.363
	c0.898,0.022,1.796,0.01,2.694,0.01l-0.006-0.005c0.003,1.896-0.004,3.792,0.01,5.688c0.004,0.304-0.07,0.396-0.383,0.389
	c-0.885-0.021-1.772-0.009-2.659-0.01L15.177,36.413z"/>
<path fill="#401E13" d="M18.209,27.307c-1.905,0-3.81-0.005-5.715,0.008c-0.276,0.001-0.368-0.054-0.362-0.351
	c0.023-0.897,0.01-1.795,0.012-2.693l-0.007,0.007c1.01-0.005,2.02-0.01,3.03-0.015c1.013,0.004,2.026,0.009,3.04,0.013l0,0
	c0,1.011,0,2.022,0,3.034L18.209,27.307z"/>
<path fill="#401E13" d="M54.608,24.271c0.002,0.912-0.01,1.823,0.01,2.735c0.006,0.264-0.079,0.309-0.319,0.308
	c-1.92-0.01-3.838-0.007-5.756-0.007l0.002,0.003c0.005-1.008,0.009-2.016,0.011-3.023c1.012-0.008,2.021-0.016,3.029-0.023
	c1.012,0.005,2.021,0.01,3.03,0.015L54.608,24.271z"/>
<path fill="#401E13" d="M51.575,51.581c0.896,0,1.797,0.014,2.693-0.012c0.297-0.006,0.353,0.088,0.35,0.363
	c-0.014,1.903-0.008,3.811-0.01,5.715l0.006-0.004c-1.012-0.004-2.023-0.004-3.035-0.006l0.007,0.006
	c-0.002-2.022-0.003-4.045-0.006-6.067L51.575,51.581z"/>
<path fill="#401E13" d="M54.608,57.647c0.914,0,1.83,0.006,2.744-0.008c0.229-0.002,0.299,0.057,0.299,0.291
	c-0.01,1.83-0.01,3.659-0.002,5.49c0.002,0.229-0.058,0.301-0.291,0.296c-0.916-0.015-1.832-0.006-2.746-0.005L54.61,63.71
	c-0.004-1.014-0.006-2.025-0.01-3.039c0.004-1.009,0.01-2.02,0.014-3.027L54.608,57.647z"/>
<path fill="#401E13" d="M48.543,27.307c0,1.013-0.001,2.026-0.002,3.038l0.007-0.005c-1.012-0.003-2.021-0.005-3.031-0.008
	c0.002-1.004,0.004-2.008,0.006-3.012c1.008-0.003,2.018-0.007,3.022-0.01L48.543,27.307z"/>
<path fill="#401E13" d="M60.676,18.204c0.001,0.91-0.008,1.82,0.011,2.729c0.004,0.252-0.063,0.319-0.313,0.314
	c-0.91-0.017-1.818-0.009-2.729-0.009l0.006,0.006c0-0.915,0.006-1.829-0.008-2.743c-0.004-0.233,0.064-0.302,0.299-0.299
	c0.914,0.014,1.83,0.007,2.744,0.009L60.676,18.204z"/>
<path fill="#401E13" d="M48.541,30.345c0.91,0,1.819,0.008,2.729-0.009c0.252-0.005,0.317,0.061,0.313,0.313
	c-0.018,0.91-0.008,1.819-0.009,2.729l0.005-0.005c-0.898,0-1.799-0.008-2.698,0.008c-0.269,0.005-0.349-0.074-0.343-0.342
	c0.016-0.9,0.006-1.8,0.009-2.7L48.541,30.345z"/>
<path fill="#401E13" d="M6.076,15.17c-0.91,0.001-1.819-0.008-2.729,0.01c-0.252,0.004-0.319-0.062-0.313-0.314
	c0.018-0.909,0.009-1.819,0.01-2.729l-0.008,0.007c0.915,0,1.83,0.005,2.744-0.008c0.231-0.003,0.302,0.065,0.298,0.299
	c-0.013,0.914-0.006,1.829-0.008,2.743L6.076,15.17z"/>
<path fill="#401E13" d="M63.709,9.109c0.916,0,1.831,0.005,2.746-0.008c0.229-0.003,0.301,0.058,0.297,0.292
	c-0.015,0.82-0.015,1.64,0,2.459c0.004,0.234-0.067,0.296-0.297,0.292c-0.915-0.014-1.83-0.007-2.746-0.009l0.008,0.007
	c0-1.014,0-2.027,0-3.04L63.709,9.109z"/>
<path fill="#401E13" d="M15.177,51.581c-0.001-1.012-0.004-2.021-0.005-3.035l0.004-0.003c1.011,0.001,2.021,0.002,3.032,0.002
	h-0.001c-0.003,1.009-0.006,2.017-0.008,3.022c-1.009,0.004-2.018,0.006-3.027,0.009L15.177,51.581z"/>
<path fill="#401E13" d="M51.58,48.545c-0.001,1.013-0.004,2.022-0.005,3.035l0.005-0.005c-1.011-0.002-2.019-0.006-3.026-0.008
	c-0.003-1.008-0.005-2.016-0.009-3.023h-0.001c1.012,0,2.021-0.001,3.032-0.002L51.58,48.545z"/>
<path fill="#401E13" d="M12.139,54.608c0-0.914,0.009-1.828-0.003-2.744c-0.005-0.234,0.067-0.295,0.296-0.291
	c0.915,0.013,1.83,0.008,2.745,0.008l-0.005-0.005c0,1.011,0,2.022,0.001,3.036c-1.011,0-2.021,0-3.031,0.002L12.139,54.608z"/>
<path fill="#401E13" d="M51.573,9.111c1.015-0.001,2.027-0.001,3.042-0.002l-0.007-0.006c0.002,1.013,0.004,2.025,0.004,3.038
	c-1.01-0.002-2.021-0.004-3.032-0.007c0.001-1.011,0.002-2.021,0.003-3.032L51.573,9.111z"/>
<path fill="#401E13" d="M57.644,21.238c0,0.91-0.009,1.82,0.008,2.729c0.007,0.252-0.062,0.319-0.313,0.314
	c-0.908-0.017-1.816-0.008-2.729-0.01l0.008,0.007c0.001-1.012,0.003-2.023,0.005-3.036l-0.005,0.009
	c1.012-0.003,2.021-0.005,3.033-0.008L57.644,21.238z"/>
<path fill="#401E13" d="M12.137,9.109c1.015,0.001,2.027,0.001,3.042,0.002l-0.01-0.01c0.001,1.011,0.002,2.021,0.003,3.033
	c-1.011,0.003-2.023,0.005-3.033,0.007c0.001-1.013,0.003-2.025,0.005-3.038L12.137,9.109z"/>
<path fill="#401E13" d="M18.21,30.345c0-1.012-0.001-2.025-0.001-3.038l-0.002,0.003c1.011,0,2.021,0,3.032,0l0,0
	c-0.001,1.007-0.002,2.015-0.004,3.022c-1.011,0.002-2.02,0.005-3.031,0.008L18.21,30.345z"/>
<path fill="#401E13" d="M3.043,12.136c-0.916,0.001-1.831-0.005-2.746,0.009C0.067,12.148-0.004,12.087,0,11.853
	c0.015-0.819,0.015-1.64,0-2.459C-0.004,9.16,0.067,9.099,0.297,9.102c0.915,0.013,1.83,0.007,2.746,0.008L3.035,9.103
	c0,1.013,0,2.026,0,3.04L3.043,12.136z"/>
<path fill="#401E13" d="M12.144,24.271c-0.911,0.001-1.82-0.007-2.729,0.01c-0.252,0.005-0.318-0.062-0.314-0.314
	c0.018-0.91,0.009-1.819,0.01-2.729l-0.006,0.006c1.011,0.002,2.021,0.005,3.033,0.008l-0.005-0.009
	c0.002,1.012,0.004,2.023,0.005,3.036L12.144,24.271z"/>
<path fill="#9B533E" d="M18.199,51.567c0.002-1.008,0.005-2.016,0.008-3.022c1.869,0,3.739-0.012,5.608,0.009
	c0.392,0.004,0.469-0.123,0.467-0.484c-0.014-2.699-0.008-5.402-0.008-8.104c0-0.521,0-0.521,0.537-0.521
	c0.833-0.002,1.665-0.002,2.498-0.002c0,1.887,0.006,3.771-0.007,5.654c-0.003,0.313,0.068,0.432,0.405,0.424
	c0.875-0.022,1.749-0.006,2.624-0.004c0.004,0.899,0.015,1.801,0.005,2.701c-0.003,0.249,0.067,0.332,0.322,0.327
	c0.901-0.015,1.802-0.008,2.703-0.009c0.002,0.902,0.013,1.804,0.002,2.703c-0.004,0.27,0.083,0.355,0.352,0.352
	c0.765-0.015,1.529,0.008,2.293-0.012c0.296-0.008,0.401,0.063,0.4,0.381c-0.011,3.797-0.011,7.594-0.001,11.391
	c0.001,0.299-0.102,0.366-0.377,0.36c-0.889-0.019-1.775-0.01-2.663-0.013c0-0.899-0.006-1.801,0.008-2.7
	c0.003-0.254-0.076-0.328-0.325-0.323c-0.9,0.016-1.801,0.012-2.702,0.014c-1.015,0-2.03,0-3.046,0
	c-2.021-0.002-4.041-0.008-6.063-0.01l0.003,0.002c0-0.832-0.001-1.666-0.001-2.498c0-0.537,0.001-0.537,0.521-0.537
	c3.727,0,7.453-0.004,11.182,0.01c0.336,0,0.448-0.086,0.435-0.432c-0.024-0.736-0.025-1.475,0.001-2.211
	c0.013-0.342-0.113-0.408-0.421-0.402c-0.751,0.021-1.501-0.004-2.252,0.015c-0.282,0.006-0.383-0.073-0.375-0.367
	c0.02-0.709,0.006-1.419,0.006-2.13c0-0.548,0-0.548-0.548-0.548C25.926,51.573,22.063,51.571,18.199,51.567z"/>
<path fill="#DD964C" d="M48.554,51.567c1.01,0.004,2.018,0.006,3.026,0.009c0.003,2.022,0.004,4.045,0.006,6.067
	c-4.043-0.004-8.088-0.004-12.132-0.006c0-2.019,0-4.035,0-6.055c0.326-0.002,0.656-0.007,0.982-0.007
	C43.144,51.573,45.849,51.571,48.554,51.567z"/>
<path fill="#9B533E" d="M48.554,51.567c-2.705,0.004-5.41,0.006-8.115,0.011c-0.328,0-0.655,0.005-0.982,0.007
	c0-2.025,0-4.055,0-6.081c0.896,0.002,1.796-0.005,2.693,0.013c0.281,0.006,0.334-0.103,0.332-0.354
	c-0.01-1.905-0.008-3.812-0.01-5.718c0.86,0,1.721,0.021,2.58-0.01c0.393-0.016,0.469,0.123,0.467,0.484
	c-0.015,2.701-0.008,5.404-0.008,8.105c0,0.52,0,0.52,0.537,0.521c0.832,0,1.664,0,2.497,0
	C48.549,49.552,48.551,50.56,48.554,51.567z"/>
<path fill="#B3DF7E" d="M42.472,39.444c0.002,1.904,0,3.811,0.01,5.716c0.002,0.254-0.051,0.362-0.332,0.356
	c-0.897-0.02-1.799-0.013-2.693-0.015c-0.005-0.897-0.02-1.798-0.005-2.694c0.006-0.273-0.082-0.342-0.345-0.336
	c-0.898,0.014-1.799,0.004-2.696,0.004l0.002,0.002c0-0.896-0.011-1.795,0.005-2.691c0.004-0.268-0.08-0.352-0.35-0.348
	c-0.896,0.014-1.795,0.004-2.69,0.004l0.003,0.004c0.001-0.889,0.012-1.776-0.003-2.666c-0.003-0.277,0.062-0.375,0.359-0.371
	c1.791,0.014,3.58,0.012,5.371,0c0.268-0.001,0.352,0.076,0.346,0.346c-0.018,0.751,0.018,1.504-0.016,2.254
	c-0.019,0.379,0.113,0.451,0.461,0.442c0.859-0.022,1.723-0.005,2.582-0.003L42.472,39.444z"/>
<path fill="#B3DF7E" d="M33.362,48.536c-0.901,0.001-1.802-0.006-2.703,0.009c-0.255,0.005-0.325-0.078-0.322-0.327
	c0.01-0.9-0.001-1.802-0.005-2.701c0.007-2.021,0.015-4.041,0.021-6.062c1.009-0.003,2.017-0.007,3.024-0.009l-0.003-0.004
	c0,0.896,0.01,1.795-0.003,2.689c-0.006,0.27,0.079,0.354,0.347,0.35c0.897-0.016,1.795-0.004,2.691-0.004l-0.002-0.002
	c0,0.896-0.008,1.797,0.007,2.693c0.004,0.26-0.058,0.354-0.333,0.35c-0.79-0.021-1.58,0.002-2.37-0.016
	c-0.262-0.005-0.347,0.064-0.343,0.337C33.383,46.739,33.367,47.638,33.362,48.536z"/>
<path fill="#9B533E" d="M39.454,57.638c4.044,0.002,8.089,0.002,12.132,0.006l-0.007-0.006c0,1.014-0.002,2.026-0.002,3.043
	l0.003-0.002c-1.011,0.002-2.021,0.006-3.029,0.01c-1.016,0-2.03,0-3.047,0c-2.017-0.002-4.032-0.002-6.05-0.004
	C39.454,59.669,39.454,58.653,39.454,57.638z"/>
<path fill="#9B533E" d="M12.142,63.71c0.003-1.014,0.006-2.025,0.009-3.039c3.031,0.003,6.062,0.006,9.092,0.01
	c0,0-0.003-0.002-0.002-0.002c0.002,1.006,0.005,2.016,0.008,3.022C18.212,63.706,15.177,63.708,12.142,63.71z"/>
<path fill="#B3DF7E" d="M21.248,63.702c-0.003-1.008-0.006-2.018-0.008-3.023c2.021,0.002,4.041,0.008,6.063,0.01
	c0,1.004,0,2.008-0.001,3.015C25.283,63.701,23.266,63.702,21.248,63.702z"/>
<path fill="#B3DF7E" d="M39.454,60.685c2.018,0.002,4.033,0.002,6.05,0.004c0,1.004,0,2.008,0,3.014
	c-1.921,0.003-3.843,0.005-5.764,0.016c-0.226,0.004-0.306-0.055-0.302-0.293C39.455,62.511,39.45,61.599,39.454,60.685z"/>
<path fill="#7C9853" d="M27.302,63.701c0.001-1.005,0.001-2.009,0.001-3.013c1.016,0,2.031,0,3.046,0c0,1.004,0,2.008,0,3.013
	C29.334,63.701,28.318,63.701,27.302,63.701z"/>
<path fill="#B3DF7E" d="M30.349,63.701c0-1.005,0-2.009,0-3.013c0.901-0.004,1.802,0,2.702-0.016
	c0.249-0.005,0.328,0.069,0.325,0.323c-0.014,0.899-0.008,1.801-0.008,2.7C32.361,63.7,31.354,63.7,30.349,63.701z"/>
<path fill="#7C9853" d="M45.504,63.701c0-1.005,0-2.009,0-3.013c1.017,0,2.031,0,3.047,0c0,1.004,0,2.008,0,3.013
	C47.535,63.701,46.521,63.701,45.504,63.701z"/>
<path fill="#B3DF7E" d="M48.551,63.701c0-1.005,0-2.009,0-3.013c1.009-0.004,2.019-0.008,3.029-0.01
	c-0.004,1.006-0.006,2.016-0.009,3.021C50.563,63.702,49.558,63.701,48.551,63.701z"/>
<path fill="#9B533E" d="M51.571,63.702c0.003-1.008,0.005-2.018,0.009-3.023l-0.003,0.002c1.009-0.002,2.018-0.006,3.023-0.009
	c0.004,1.013,0.006,2.024,0.01,3.039C53.599,63.708,52.584,63.706,51.571,63.702z"/>
<path fill="#DD964C" d="M48.545,48.544c-0.833,0-1.665,0-2.497,0c-0.537-0.001-0.537-0.001-0.537-0.52
	c0-2.703-0.007-5.405,0.008-8.106c0.002-0.36-0.074-0.5-0.467-0.483c-0.859,0.03-1.72,0.01-2.58,0.01l0.006,0.004
	c0.002-3.032,0.006-6.065,0.008-9.098c1.013-0.006,2.021-0.012,3.031-0.017c1.012,0.002,2.021,0.005,3.031,0.008
	c-0.003,0.9,0.008,1.8-0.009,2.7c-0.006,0.268,0.073,0.347,0.343,0.342c0.898-0.016,1.799-0.008,2.698-0.008
	c0,3.879-0.001,7.759-0.003,11.64c0,0.164-0.006,0.326-0.01,0.489c-0.875,0.002-1.75,0.021-2.623,0
	c-0.336-0.009-0.414,0.104-0.406,0.42C48.556,46.795,48.544,47.671,48.545,48.544L48.545,48.544z"/>
<path fill="#9B533E" d="M48.544,48.544c0-0.873,0.012-1.749-0.006-2.622c-0.008-0.313,0.07-0.429,0.406-0.42
	c0.873,0.021,1.748,0.002,2.623,0c0.002,1.015,0.007,2.026,0.009,3.04C50.565,48.543,49.556,48.544,48.544,48.544z"/>
<path fill="#B3DF7E" d="M39.446,3.036c-0.002,0.914,0.006,1.829-0.008,2.744c-0.004,0.233,0.065,0.301,0.299,0.298
	c0.914-0.008,1.828,0.003,2.742,0.008c0,1.007,0,2.013,0,3.02c-0.898,0-1.797,0.01-2.692-0.004c-0.269-0.004-0.353,0.08-0.349,0.348
	c0.014,0.897,0.006,1.795,0.006,2.692c-0.875,0-1.748,0.011-2.623-0.008c-0.313-0.007-0.432,0.068-0.42,0.406
	c0.024,0.75-0.008,1.503,0.015,2.254c0.01,0.314-0.097,0.395-0.396,0.387c-0.75-0.02-1.504-0.02-2.254,0
	c-0.301,0.008-0.405-0.074-0.397-0.388c0.021-0.751-0.011-1.503,0.017-2.254c0.011-0.339-0.11-0.412-0.422-0.405
	c-0.874,0.02-1.749,0.008-2.624,0.009c0.002-0.888-0.006-1.776,0.009-2.663c0.005-0.274-0.061-0.388-0.361-0.38
	c-0.776,0.019-1.556,0.017-2.334,0.001C27.385,9.095,27.3,9.182,27.305,9.45c0.014,0.778,0.019,1.557-0.001,2.334
	c-0.008,0.3,0.106,0.365,0.38,0.36c0.887-0.015,1.774-0.007,2.662-0.007c-0.001,0.833-0.002,1.665-0.002,2.498
	c-0.001,0.538-0.001,0.539-0.519,0.539c-1.721,0-3.441,0.007-5.161-0.007c-0.302-0.002-0.402,0.077-0.395,0.389
	c0.021,0.887,0.01,1.774,0.011,2.662l0.003-0.009c-0.887,0-1.773,0.012-2.66-0.008c-0.313-0.007-0.395,0.095-0.388,0.396
	c0.02,0.75,0.025,1.501-0.002,2.251c-0.012,0.345,0.123,0.405,0.426,0.399c0.873-0.017,1.745-0.008,2.62-0.008
	c1.009,0,2.017-0.001,3.026-0.002c1.012,0,2.021,0.001,3.032,0.002c1.015,0,2.026,0,3.041,0.001
	c-0.001,0.873-0.019,1.746,0.007,2.618c0.01,0.352-0.11,0.436-0.441,0.424c-0.722-0.021-1.445,0.009-2.168-0.014
	c-0.331-0.011-0.452,0.072-0.441,0.425c0.026,0.872,0.01,1.744,0.01,2.618c-3.034,0-6.069-0.001-9.104-0.001l0,0
	c0.002-0.897-0.007-1.795,0.008-2.692c0.004-0.268-0.082-0.352-0.349-0.348c-0.897,0.015-1.795,0.006-2.691,0.007l0,0
	c0-3.035,0.001-6.07,0.001-9.104c0.886,0,1.773-0.013,2.659,0.01c0.318,0.008,0.382-0.101,0.381-0.396
	c-0.014-1.896-0.008-3.791-0.009-5.686l-0.006,0.006c0.884,0,1.769-0.01,2.651,0.008c0.291,0.006,0.406-0.054,0.397-0.376
	c-0.022-0.883-0.01-1.767-0.011-2.65c0.9-0.004,1.801-0.019,2.702-0.007c0.268,0.004,0.347-0.071,0.341-0.34
	c-0.018-0.901-0.009-1.802-0.01-2.703C31.353,3.036,35.399,3.036,39.446,3.036z"/>
<path fill="#DD964C" d="M27.31,39.44c-0.833,0.002-1.665,0.002-2.498,0.002c-0.537,0.002-0.537,0.002-0.537,0.521
	c0,2.702-0.006,5.405,0.008,8.106c0.002,0.361-0.075,0.488-0.467,0.484c-1.869-0.021-3.739-0.011-5.608-0.011h0.001
	c0-0.873-0.012-1.749,0.006-2.622c0.007-0.313-0.071-0.429-0.406-0.42c-0.874,0.021-1.749,0.002-2.623,0
	c-0.005-3.029-0.009-6.063-0.013-9.098c0.887,0.002,1.774-0.012,2.659,0.012c0.313,0.008,0.387-0.085,0.383-0.389
	c-0.014-1.896-0.007-3.792-0.01-5.688c1.012-0.003,2.021-0.005,3.031-0.008c2.021,0.006,4.043,0.011,6.064,0.017
	c0.003,3.032,0.004,6.063,0.006,9.093H27.31z"/>
<path fill="#9B533E" d="M15.185,45.502c0.874,0.002,1.749,0.021,2.623,0c0.335-0.009,0.413,0.104,0.406,0.42
	c-0.018,0.873-0.006,1.749-0.006,2.622c-1.012,0-2.021-0.001-3.032-0.002C15.178,47.528,15.182,46.517,15.185,45.502z"/>
<path fill="#B3DF7E" d="M3.035,12.143c0-1.014,0-2.027,0-3.04c3.037,0,6.072,0,9.108,0c-0.002,1.013-0.004,2.025-0.005,3.038
	l0.002-0.002c-0.896,0-1.794,0.01-2.691-0.004c-0.268-0.004-0.353,0.08-0.349,0.348c0.015,0.897,0.005,1.794,0.005,2.692
	l0.002-0.003c-1.012,0.002-2.025,0.004-3.038,0.005c0.002-0.915-0.005-1.829,0.008-2.743c0.004-0.233-0.066-0.302-0.298-0.299
	C4.865,12.148,3.95,12.143,3.035,12.143z"/>
<path fill="#B3DF7E" d="M57.647,21.244c-1.01,0.002-2.021,0.005-3.032,0.007c-0.001-2.027-0.001-4.053-0.001-6.08l-0.004,0.004
	c0.885,0,1.771-0.01,2.656,0.003c0.27,0.003,0.393-0.051,0.385-0.355c-0.021-0.777-0.021-1.555,0-2.332
	c0.008-0.303-0.112-0.361-0.381-0.357c-0.89,0.013-1.774,0.004-2.66,0.004l0.002,0.002c0-1.013-0.002-2.025-0.004-3.038
	c3.035,0,6.07,0,9.106,0c0,1.013,0,2.026,0,3.04c-0.899,0-1.804,0.008-2.702-0.009c-0.271-0.005-0.344,0.076-0.341,0.342
	c0.013,1.912,0.009,3.824,0.011,5.735c-0.914-0.002-1.83,0.005-2.744-0.009c-0.232-0.003-0.304,0.065-0.299,0.299
	C57.653,19.415,57.647,20.33,57.647,21.244z"/>
<path fill="#DD964C" d="M21.242,60.681c-3.03-0.004-6.061-0.007-9.092-0.01c0-1.007,0-2.014,0-3.018
	c1.895-0.004,3.789-0.012,5.684-0.004c0.27,0,0.388-0.06,0.379-0.358c-0.019-0.776-0.02-1.554,0.001-2.33
	c0.008-0.306-0.117-0.358-0.385-0.354c-0.886,0.015-1.771,0.006-2.656,0.006c-0.001-1.014-0.001-2.024-0.001-3.035
	c1.01-0.004,2.019-0.006,3.027-0.01c3.863,0.004,7.727,0.006,11.59,0.012c0.548,0,0.548,0,0.548,0.548
	c0,0.711,0.014,1.421-0.006,2.13c-0.008,0.293,0.093,0.373,0.375,0.367c0.751-0.02,1.501,0.006,2.252-0.014
	c0.308-0.008,0.434,0.062,0.421,0.4c-0.026,0.737-0.025,1.475-0.001,2.213c0.014,0.346-0.099,0.43-0.435,0.43
	c-3.729-0.014-7.455-0.008-11.182-0.008c-0.52,0-0.521,0-0.521,0.535C21.241,59.015,21.242,59.847,21.242,60.681z"/>
<path fill="#9B533E" d="M15.173,54.612c0.886,0,1.771,0.008,2.656-0.006c0.268-0.004,0.393,0.051,0.385,0.354
	c-0.021,0.775-0.02,1.555-0.001,2.33c0.009,0.301-0.109,0.357-0.379,0.357c-1.895-0.008-3.789,0-5.684,0.004
	c-0.003-1.014-0.006-2.027-0.009-3.041C13.152,54.612,14.162,54.612,15.173,54.612z"/>
<path fill="#FEFEFE" d="M24.271,6.085c0.001,0.883-0.012,1.767,0.011,2.65c0.009,0.322-0.106,0.382-0.397,0.376
	c-0.883-0.018-1.768-0.007-2.651-0.008c0.001-1.012,0.002-2.024,0.004-3.037C22.248,6.073,23.259,6.079,24.271,6.085z"/>
<path fill="#FEFEFE" d="M42.479,9.105c0-1.007,0-2.013,0-3.02c1.014-0.006,2.022-0.012,3.035-0.018
	c-0.002,1.013-0.002,2.026-0.007,3.04l0.001-0.001c-1.01,0-2.021-0.001-3.031-0.002L42.479,9.105z"/>
<path fill="#FEFEFE" d="M21.239,9.099c0.001,1.896-0.005,3.791,0.009,5.686c0.001,0.296-0.063,0.405-0.381,0.396
	c-0.886-0.022-1.773-0.009-2.658-0.01l0.001,0.002c-0.001-0.898-0.011-1.797,0.003-2.695c0.005-0.27-0.08-0.348-0.347-0.344
	c-0.897,0.012-1.797,0.001-2.694,0c-0.001-1.011-0.002-2.021-0.003-3.032C17.192,9.1,19.216,9.1,21.239,9.099z"/>
<path fill="#FEFEFE" d="M51.583,9.102c-0.001,1.011-0.002,2.021-0.003,3.033c-0.897,0.001-1.797,0.012-2.694,0
	c-0.267-0.004-0.352,0.074-0.347,0.344c0.015,0.898,0.004,1.797,0.003,2.695l0.002-0.002c-1.011,0-2.021,0-3.033,0l0.002,0.002
	c0-2.023,0-4.045-0.002-6.068L45.51,9.107C47.534,9.105,49.56,9.103,51.583,9.102z"/>
<path fill="#B3DF7E" d="M12.137,21.252c-1.012-0.003-2.022-0.005-3.033-0.008c0.002-2.024,0.003-4.048,0.004-6.073l-0.002,0.003
	c1.012,0,2.025,0,3.036,0.001l-0.004-0.004C12.138,17.198,12.138,19.225,12.137,21.252z"/>
<path fill="#7C9853" d="M12.137,21.252c0.001-2.027,0.001-4.054,0.001-6.081c2.024,0,4.049,0.001,6.072,0.002l-0.001-0.002
	c-0.001,3.035-0.002,6.07-0.002,9.104c-1.014-0.004-2.027-0.008-3.04-0.013c0.002-0.883-0.009-1.767,0.014-2.648
	c0.009-0.319-0.107-0.386-0.4-0.38c-0.882,0.018-1.765,0.007-2.648,0.008L12.137,21.252z"/>
<path fill="#7C9853" d="M18.207,24.276c0.896,0,1.794,0.008,2.691-0.007c0.267-0.004,0.353,0.081,0.349,0.348
	c-0.015,0.897-0.006,1.795-0.008,2.692c-1.011,0-2.021,0-3.032,0C18.207,26.298,18.207,25.287,18.207,24.276z"/>
<path fill="#B3DF7E" d="M12.132,21.243c0.884,0,1.767,0.01,2.648-0.008c0.293-0.006,0.409,0.061,0.4,0.38
	c-0.022,0.882-0.012,1.765-0.014,2.648c-1.011,0.005-2.021,0.01-3.03,0.015C12.136,23.266,12.134,22.255,12.132,21.243z"/>
<path fill="#7C9853" d="M54.614,15.171c0,2.027,0,4.053,0.001,6.08l0.005-0.009c-0.896,0-1.794,0.006-2.689-0.006
	c-0.257-0.003-0.363,0.058-0.355,0.337c0.017,0.896,0.01,1.792,0.012,2.689c-1.01,0.007-2.02,0.015-3.027,0.023L48.53,24.26
	c0.004-0.887-0.002-1.776,0.021-2.664c0.009-0.3-0.106-0.365-0.381-0.36c-0.888,0.013-1.776,0.003-2.665,0.002
	c0-1.008,0-2.017,0-3.025l0.023-0.022c0.886,0.005,1.771,0,2.66,0.023c0.299,0.008,0.365-0.105,0.359-0.38
	c-0.015-0.887-0.006-1.774-0.006-2.663l-0.002,0.002C50.565,15.172,52.59,15.172,54.614,15.171z"/>
<path fill="#B3DF7E" d="M51.585,24.263c-0.002-0.897,0.005-1.793-0.012-2.689c-0.008-0.28,0.101-0.341,0.355-0.337
	c0.896,0.013,1.793,0.006,2.689,0.006c-0.002,1.012-0.004,2.023-0.006,3.036C53.604,24.273,52.597,24.268,51.585,24.263z"/>
<path fill="#7C9853" d="M48.545,27.31c-1.007,0.003-2.015,0.007-3.022,0.01l-0.023-0.026c0.004-0.885,0.021-1.771,0.007-2.656
	c-0.004-0.286,0.084-0.374,0.371-0.37c0.886,0.012,1.771-0.003,2.653-0.009l0.025,0.026C48.554,25.293,48.55,26.302,48.545,27.31z"
	/>
<path fill="#DD964C" d="M54.603,60.671c-1.008,0.003-2.017,0.006-3.023,0.01c0-1.017,0.002-2.029,0.002-3.043
	c1.012,0.002,2.023,0.002,3.035,0.006C54.61,58.653,54.604,59.663,54.603,60.671z"/>
<path fill="#7C9853" d="M45.517,30.332c-1.011,0.005-2.021,0.011-3.031,0.017c-1.016-0.004-2.029-0.007-3.047-0.01
	c0.002-1.012,0.006-2.022,0.008-3.034L39.44,27.31c2.02-0.005,4.037-0.011,6.058-0.017l0.024,0.026
	C45.521,28.324,45.519,29.328,45.517,30.332z"/>
<path fill="#B3DF7E" d="M54.614,15.171c-2.024,0-4.049,0.001-6.072,0.002c0.001-0.898,0.012-1.797-0.003-2.695
	c-0.005-0.27,0.08-0.348,0.347-0.344c0.897,0.012,1.797,0.001,2.694,0c1.011,0.003,2.022,0.005,3.032,0.007l-0.002-0.002
	c0,1.013,0,2.025,0,3.037L54.614,15.171z"/>
<path fill="#B3DF7E" d="M18.21,15.173c-2.023-0.001-4.048-0.001-6.072-0.002l0.004,0.004c0-1.012,0-2.024-0.001-3.037l-0.002,0.002
	c1.01-0.002,2.022-0.004,3.033-0.007c0.897,0.001,1.797,0.012,2.694,0c0.267-0.004,0.352,0.074,0.347,0.344
	C18.199,13.376,18.209,14.275,18.21,15.173z"/>
<path fill="#7C9853" d="M27.3,30.349c-2.021-0.006-4.043-0.011-6.064-0.017c0.002-1.008,0.003-2.015,0.004-3.022
	c3.035,0,6.07,0,9.104,0.001l-0.005-0.005c0.004,1.011,0.005,2.022,0.008,3.033C29.331,30.342,28.316,30.346,27.3,30.349z"/>
<path fill="#7C9853" d="M30.354,39.455c-0.007,2.021-0.015,4.04-0.021,6.062c-0.875-0.002-1.749-0.021-2.624,0.004
	c-0.337,0.008-0.408-0.109-0.405-0.424c0.013-1.885,0.007-3.77,0.007-5.654l-0.004,0.002C28.321,39.448,29.338,39.451,30.354,39.455
	z"/>
<path fill="#9B533E" d="M30.354,39.455c-1.016-0.004-2.032-0.007-3.048-0.011c-0.002-3.031-0.003-6.063-0.006-9.095
	c1.017-0.003,2.031-0.007,3.047-0.011h-0.002c0,0.887,0.009,1.773-0.006,2.661c-0.003,0.271,0.058,0.383,0.358,0.381
	c2.797-0.011,5.594-0.011,8.39,0c0.303,0.002,0.363-0.11,0.359-0.381c-0.014-0.887-0.006-1.774-0.006-2.661l-0.002,0.001
	c1.016,0.002,2.031,0.006,3.047,0.01c-0.004,3.032-0.006,6.065-0.008,9.099c-0.86-0.002-1.724-0.02-2.582,0.003
	c-0.349,0.009-0.479-0.063-0.461-0.442c0.03-0.75-0.002-1.503,0.015-2.254c0.006-0.27-0.078-0.347-0.347-0.346
	c-1.789,0.012-3.58,0.014-5.37,0c-0.298-0.004-0.362,0.094-0.359,0.371c0.015,0.89,0.004,1.777,0.003,2.666
	C32.37,39.448,31.362,39.452,30.354,39.455z"/>
<path fill="#7C9853" d="M36.41,42.478c-0.896,0-1.794-0.011-2.691,0.004c-0.268,0.006-0.353-0.08-0.347-0.349
	c0.013-0.896,0.003-1.794,0.003-2.69c0.897,0,1.794,0.011,2.69-0.004c0.27-0.004,0.354,0.08,0.35,0.349
	C36.401,40.683,36.41,41.581,36.41,42.478z"/>
<path fill="#7C9853" d="M24.279,18.217c-0.001-0.887,0.01-1.775-0.011-2.662c-0.008-0.312,0.093-0.391,0.395-0.389
	c1.72,0.014,3.44,0.007,5.161,0.007c0.518,0,0.518,0,0.519-0.539c0-0.833,0.001-1.665,0.002-2.498l-0.006,0.005
	c0.875-0.001,1.75,0.01,2.624-0.009c0.312-0.007,0.433,0.066,0.422,0.405c-0.027,0.75,0.005,1.503-0.017,2.254
	c-0.008,0.314,0.097,0.396,0.397,0.388c0.751-0.02,1.503-0.02,2.253,0c0.301,0.007,0.405-0.073,0.396-0.387
	c-0.021-0.751,0.012-1.503-0.017-2.254c-0.012-0.338,0.107-0.413,0.422-0.406c0.873,0.02,1.748,0.008,2.623,0.008l-0.006-0.004
	c0.002,0.885,0.018,1.771-0.004,2.656c-0.008,0.313,0.098,0.388,0.396,0.386c1.895-0.013,3.788-0.007,5.682-0.007l-0.003-0.002
	c0.007,1.007,0.013,2.013,0.019,3.02l-0.022,0.022c-1.012,0-2.022-0.001-3.034-0.001c-0.898-0.001-1.798,0.007-2.693-0.01
	c-0.271-0.005-0.344,0.08-0.338,0.343c0.017,0.898,0.008,1.796,0.008,2.694c-1.014,0-2.025,0-3.038,0l0.004,0.005
	c0-0.886-0.011-1.773,0.004-2.659c0.003-0.269-0.054-0.391-0.356-0.383c-0.774,0.02-1.555,0.02-2.331,0
	c-0.304-0.008-0.36,0.115-0.355,0.383c0.012,0.886,0.003,1.773,0.002,2.659l0.004-0.004c-1.015,0-2.026,0-3.041-0.001
	c0.006-0.915,0.004-1.83,0.019-2.746c0.005-0.238-0.083-0.301-0.31-0.297c-0.914,0.013-1.83,0.012-2.744,0.017
	C26.294,18.213,25.286,18.216,24.279,18.217z"/>
<path fill="#7C9853" d="M30.344,27.311c0-0.874,0.017-1.746-0.01-2.618c-0.011-0.353,0.11-0.437,0.441-0.425
	c0.723,0.022,1.446-0.009,2.168,0.014c0.331,0.011,0.451-0.072,0.441-0.424c-0.025-0.873-0.008-1.745-0.007-2.618l-0.004,0.004
	c1.013,0,2.024,0,3.037,0l-0.005-0.005c0.002,0.873,0.02,1.746-0.006,2.618c-0.01,0.353,0.109,0.436,0.441,0.425
	c0.735-0.021,1.473,0.006,2.207-0.013c0.299-0.008,0.407,0.066,0.398,0.383c-0.021,0.886-0.01,1.772-0.01,2.659l0.006-0.005
	c-3.035,0-6.07,0-9.106,0L30.344,27.311z"/>
<path fill="#FEFEFE" d="M27.302,18.211c0.001,1.008,0.002,2.016,0.003,3.024c-1.01,0.001-2.018,0.002-3.026,0.002
	c0.001-1.01,0.002-2.02,0.004-3.03l-0.003,0.009C25.286,18.216,26.294,18.213,27.302,18.211z"/>
<path fill="#7C9853" d="M39.444,12.142c0-0.897,0.008-1.795-0.006-2.692c-0.004-0.268,0.08-0.352,0.349-0.348
	c0.896,0.014,1.794,0.004,2.692,0.004l-0.002-0.001c0,0.898-0.011,1.796,0.004,2.694c0.004,0.268-0.08,0.352-0.35,0.348
	c-0.896-0.015-1.795-0.007-2.691-0.007L39.444,12.142z"/>
<path fill="#7C9853" d="M30.345,12.138c-0.888,0-1.775-0.007-2.662,0.007c-0.273,0.005-0.388-0.06-0.38-0.36
	c0.02-0.778,0.015-1.557,0.001-2.334c-0.006-0.269,0.08-0.355,0.349-0.349c0.778,0.015,1.558,0.018,2.334-0.001
	c0.301-0.007,0.366,0.106,0.361,0.38c-0.015,0.887-0.007,1.775-0.009,2.663L30.345,12.138z"/>
<path fill="#7C9853" d="M24.282,18.208c-0.002,1.01-0.003,2.02-0.004,3.03c-0.875,0-1.747-0.009-2.62,0.008
	c-0.303,0.006-0.438-0.054-0.426-0.399c0.027-0.75,0.021-1.501,0.002-2.251c-0.007-0.301,0.075-0.403,0.388-0.396
	C22.509,18.221,23.396,18.208,24.282,18.208z"/>
<path fill="#7C9853" d="M12.141,12.139c0.001,1.013,0.001,2.025,0.001,3.037c-1.011,0-2.024,0-3.036-0.001
	c0-0.898,0.01-1.795-0.005-2.692c-0.004-0.268,0.081-0.352,0.349-0.348C10.347,12.148,11.244,12.139,12.141,12.139z"/>
<path fill="#7C9853" d="M54.61,15.176c0-1.012,0-2.024,0-3.037c0.886,0,1.771,0.009,2.66-0.004c0.269-0.004,0.389,0.054,0.381,0.357
	c-0.021,0.777-0.021,1.555,0,2.332c0.008,0.304-0.115,0.359-0.385,0.355C56.382,15.166,55.495,15.175,54.61,15.176z"/>
<path fill="#B3DF7E" d="M39.44,12.138c0.896,0,1.795-0.007,2.691,0.007c0.27,0.004,0.354-0.08,0.35-0.348
	c-0.015-0.898-0.004-1.795-0.004-2.694c1.01,0.001,2.021,0.001,3.031,0.002c0.001,2.022,0.004,4.045,0.004,6.068
	c-1.895,0-3.787-0.006-5.683,0.007c-0.3,0.001-0.401-0.074-0.396-0.386C39.456,13.909,39.44,13.023,39.44,12.138z"/>
<path fill="#B3DF7E" d="M45.528,18.19c-0.006-1.006-0.012-2.013-0.02-3.02c1.012,0,2.021,0,3.033,0c0,0.888-0.009,1.775,0.006,2.663
	c0.006,0.274-0.063,0.388-0.359,0.38C47.302,18.19,46.414,18.196,45.528,18.19z"/>
<path fill="#B3DF7E" d="M39.44,27.311c0-0.886-0.012-1.773,0.01-2.659c0.008-0.317-0.104-0.391-0.399-0.383
	c-0.735,0.019-1.472-0.01-2.206,0.013c-0.332,0.011-0.453-0.072-0.443-0.425c0.024-0.872,0.009-1.745,0.008-2.618
	c1.013,0,2.023,0,3.037,0c1.011,0,2.02-0.001,3.027-0.002c1.012,0,2.021,0.001,3.031,0.002c0.889,0.001,1.777,0.011,2.665-0.002
	c0.274-0.004,0.39,0.061,0.381,0.36c-0.021,0.888-0.017,1.776-0.021,2.664c-0.887,0.005-1.771,0.021-2.655,0.009
	c-0.287-0.004-0.375,0.083-0.371,0.37c0.013,0.885-0.003,1.771-0.007,2.656C43.478,27.299,41.459,27.305,39.44,27.311z"/>
<path fill="#B3DF7E" d="M30.339,27.306c3.036,0,6.071,0,9.107,0c-0.002,1.011-0.006,2.022-0.008,3.034l0.002-0.001
	c-3.031,0-6.063,0-9.096,0h0.002C30.344,29.328,30.343,28.317,30.339,27.306z"/>
<path fill="#7C9853" d="M30.345,30.338c3.032,0,6.064,0,9.095,0c0,0.887-0.008,1.773,0.006,2.661
	c0.005,0.271-0.057,0.383-0.358,0.381c-2.796-0.011-5.593-0.011-8.39,0c-0.301,0.002-0.361-0.11-0.358-0.381
	C30.354,32.111,30.345,31.225,30.345,30.338z"/>
<path fill="#FEFEFE" d="M42.47,18.211c0.002,1.008,0.002,2.016,0.004,3.024c-1.01,0.001-2.019,0.002-3.027,0.002
	c0-0.898,0.01-1.796-0.008-2.694c-0.006-0.263,0.065-0.348,0.338-0.343C40.673,18.219,41.571,18.21,42.47,18.211z"/>
<path fill="#B3DF7E" d="M36.411,21.243c-1.012,0-2.023,0-3.037,0c0.001-0.886,0.01-1.773-0.002-2.659
	c-0.005-0.269,0.052-0.391,0.355-0.383c0.776,0.02,1.555,0.02,2.331,0c0.305-0.008,0.359,0.115,0.356,0.383
	C36.401,19.47,36.411,20.357,36.411,21.243z"/>
<path fill="#401E13" d="M25.649,18.211c0.914-0.004,1.83-0.003,2.744-0.017c0.227-0.004,0.314,0.06,0.31,0.297
	c-0.015,0.916-0.013,1.831-0.019,2.746c-1.011,0-2.021-0.001-3.032-0.002C25.652,20.228,25.651,19.219,25.649,18.211z"/>
<path fill="#401E13" d="M44.063,21.238c-1.012,0-2.021-0.001-3.031-0.002c-0.002-1.008-0.002-2.017-0.004-3.024
	c1.012,0,2.022,0.001,3.035,0.001C44.063,19.221,44.063,20.229,44.063,21.238z"/>
<rect x="48.543" y="13.42" fill="#B3DF7E" width="3.083" height="10.833"/>
</svg>
