<?xml version="1.0" encoding="utf-8"?>
<!-- Generator: Adobe Illustrator 16.0.0, SVG Export Plug-In . SVG Version: 6.00 Build 0)  -->
<!DOCTYPE svg PUBLIC "-//W3C//DTD SVG 1.1//EN" "http://www.w3.org/Graphics/SVG/1.1/DTD/svg11.dtd">
<svg version="1.1" id="Layer_1" xmlns="http://www.w3.org/2000/svg" xmlns:xlink="http://www.w3.org/1999/xlink" x="0px" y="0px"
	 width="244.17px" height="217.875px" viewBox="0 0 244.17 217.875" style="enable-background:new 0 0 244.17 217.875;"
	 xml:space="preserve">
<path style="fill:#E6E7E8;" d="M106.357,0.044H16.42C7.352,0.044,0,7.396,0,16.465v184.926c0,9.069,7.352,16.421,16.42,16.421
	h89.938c9.069,0,16.421-7.352,16.421-16.421V16.465C122.778,7.396,115.427,0.044,106.357,0.044z M51.377,6.224h20.025
	c0.889,0,1.608,0.966,1.608,2.157c0,1.191-0.72,2.157-1.608,2.157H51.377c-0.889,0-1.609-0.966-1.609-2.157
	C49.768,7.19,50.488,6.224,51.377,6.224z M61.389,211.991c-5.859,0-10.609-4.75-10.609-10.61s4.75-10.61,10.609-10.61
	c5.861,0,10.611,4.75,10.611,10.61S67.25,211.991,61.389,211.991z M115.705,186.938H7.074v-168.2h108.631V186.938z"/>
<path style="fill:#58595B;" d="M227.746,95.096h-93.221v7.071h90.947v108.636h-93.221l-3.031,7.071h98.525
	c9.072,0,16.424-7.352,16.424-16.416V111.52C244.17,102.448,236.818,95.096,227.746,95.096z M236.849,166.493
	c0,0.895-0.962,1.614-2.152,1.614c-1.197,0-2.159-0.72-2.159-1.614V146.47c0-0.887,0.962-1.606,2.159-1.606
	c0.599,0,1.13,0.183,1.523,0.47c0.387,0.288,0.629,0.697,0.629,1.137V166.493z"/>
<path style="fill:#939598;" d="M165.289,7.464L165.227,0l-27.428,16.138l27.689,15.684l-0.058-6.993
	c36.726-3.046,52.55,16.322,64.329,56.642C228.399,40.922,212.613,12.709,165.289,7.464z"/>
</svg>
