
<svg 
  version="1.1" 
  id="svgspecs" 
  xmlns="http://www.w3.org/2000/svg" 
	 width="414.91px" height="153.67px" 
   viewBox="0 0 414.91 153.67" 
   enable-background="new 0 0 414.91 153.67" >
<g>
	<g>
		<path fill="#198BCA" d="M407.71,14.09l-0.03-0.15c-5.25-0.93-81.27-8.73-130.84-7.87c-16.03,0.28-29.3,1.2-36.51,3.14
			c-7.79,2.09-5.65,3.52-5.55,10.46c0.07,6.14-5.35,6.23-8.26,6.29c-23.55,0.16-14.13,0.16-38.16,0c-2.91-0.06-8.33-0.14-8.26-6.29
			c0.09-6.94,2.24-8.37-5.55-10.46c-7.21-1.94-20.47-2.86-36.51-3.14C88.48,5.21,12.47,13.01,7.22,13.94l-0.03,0.15
			c-1.4,9.95-1.54,11.38-0.53,22.63v0.2h0.18l0.17,0.02l8.22,1.35c2.07,0.33,3.55,2.09,3.55,4.17v0.02
			c-0.4,25.69-0.88,64.73-0.58,67.65c0.16,0.62,0.74,1.5,3.44,2.29c0.99,0.28,1.93,0.45,2.85,0.61c3.02,0.55,6.76,1.22,6.78,6.81
			c0,0,0.55,11.55,0.56,11.59c0,0.04-0.04,0.09,0,0.11c0.01,0.03,0.04,0,0.07,0h0.06c0.05,0.01,11.79,0.86,11.79,0.86h0.06
			l0.06,0.01c2.09,0.27,3.69,2.08,3.69,4.2v5.81c0,1.59,1.26,2.88,2.86,2.92c35.16,2.31,56.67,2.63,92.98,2.1
			c0.78,0,1.53-0.3,2.08-0.86c0.56-0.55,0.88-2.92,0.88-3.7c0-1.06,0-4.23,0-4.23c0-2.34,1.9-4.22,4.21-4.22h11.31
			c1.62,0,2.92-1.31,2.92-2.93v-12.15c0-3,2.42-5.47,5.41-5.55c2.75-0.33,5-0.39,6.81-0.45c4.37-0.13,4.88-0.3,5.49-1.71
			c1.08-2.49,1.47-8.33,2.2-18.9c0.24-3.73,0.52-7.96,0.9-12.93c0.06-3.02,2.52-5.46,5.56-5.46c1.13,0,2.06-0.9,2.06-2.04v-10.5
			c0-7.29,28.5-7.31,28.5,0v10.5c0,1.14,0.93,2.04,2.06,2.04c3.04,0,5.5,2.44,5.56,5.46c0.38,4.97,0.66,9.2,0.9,12.93
			c0.73,10.57,1.12,16.41,2.2,18.9c0.61,1.41,1.12,1.58,5.49,1.71c1.81,0.06,4.06,0.12,6.81,0.45c2.99,0.07,5.41,2.54,5.41,5.55
			v12.15c0,1.62,1.3,2.93,2.92,2.93h11.31c2.31,0,4.21,1.88,4.21,4.22c0,0,0,3.17,0,4.23c0,0.78,0.32,3.15,0.88,3.7
			c0.55,0.56,1.3,0.86,2.08,0.86c36.31,0.53,57.82,0.21,92.98-2.1c1.59-0.04,2.86-1.33,2.86-2.92v-5.81c0-2.12,1.59-3.93,3.69-4.2
			l0.06-0.01h0.06c0,0,11.74-0.85,11.79-0.86h0.06c0.04,0,0.06,0.03,0.07,0c0.04-0.02,0-0.07,0-0.11
			c0.01-0.04,0.56-11.59,0.56-11.59c0.01-5.6,3.76-6.26,6.78-6.81c0.91-0.16,1.86-0.33,2.85-0.61c2.7-0.79,3.28-1.67,3.44-2.29
			c0.29-2.92-0.18-41.96-0.58-67.65v-0.02c0-2.08,1.48-3.85,3.55-4.17l8.22-1.35l0.17-0.02h0.18v-0.2
			C409.26,25.47,409.11,24.03,407.71,14.09z"/>
	</g>
	<g>
		<linearGradient id="SVGID_1_" gradientUnits="userSpaceOnUse" x1="6.0037" y1="76.833" x2="408.9021" y2="76.833">
			<stop  offset="0" style="stop-color:#198BCA;stop-opacity:0"/>
			<stop  offset="0.1" style="stop-color:#1677A1"/>
			<stop  offset="0.25" style="stop-color:#1B5F7E"/>
			<stop  offset="0.4877" style="stop-color:#1677A1"/>
			<stop  offset="0.75" style="stop-color:#1B5F7E"/>
			<stop  offset="0.9" style="stop-color:#1677A1"/>
			<stop  offset="1" style="stop-color:#198BCA;stop-opacity:0"/>
		</linearGradient>
		<path fill="url(#SVGID_1_)" d="M407.71,14.09l-0.03-0.15c-5.25-0.93-81.27-8.73-130.84-7.87c-16.03,0.28-29.3,1.2-36.51,3.14
			c-7.79,2.09-5.65,3.52-5.55,10.46c0.07,6.14-5.35,6.23-8.26,6.29c-23.55,0.16-14.13,0.16-38.16,0c-2.91-0.06-8.33-0.14-8.26-6.29
			c0.09-6.94,2.24-8.37-5.55-10.46c-7.21-1.94-20.47-2.86-36.51-3.14C88.48,5.21,12.47,13.01,7.22,13.94l-0.03,0.15
			c-1.4,9.95-1.54,11.38-0.53,22.63v0.2h0.18l0.17,0.02l8.22,1.35c2.07,0.33,3.55,2.09,3.55,4.17v0.03
			c-0.4,25.69-0.88,64.73-0.58,67.65c0.16,0.62,0.74,1.5,3.44,2.29c0.99,0.28,1.93,0.45,2.85,0.61c3.02,0.55,6.76,1.22,6.78,6.81
			c0,0,0.55,11.55,0.56,11.59c0,0.04-0.04,0.09,0,0.11c0.01,0.02,0.04,0,0.07,0h0.06c0.05,0.01,11.79,0.87,11.79,0.87h0.06
			l0.06,0.01c2.09,0.27,3.69,2.08,3.69,4.2v5.81c0,1.59,1.26,2.88,2.86,2.92c35.16,2.32,56.67,2.63,92.98,2.11
			c0.78,0,1.53-0.3,2.08-0.86c0.56-0.55,0.88-2.92,0.88-3.7c0-1.06,0-4.23,0-4.23c0-2.34,1.9-4.22,4.21-4.22h11.31
			c1.62,0,2.92-1.31,2.92-2.93v-12.15c0-3.01,2.42-5.47,5.41-5.55c2.75-0.33,5-0.39,6.81-0.45c4.37-0.13,4.88-0.3,5.49-1.71
			c1.08-2.49,1.47-8.33,2.2-18.9c0.24-3.73,0.52-7.95,0.9-12.93c0.06-3.02,2.52-5.46,5.56-5.46c1.13,0,2.06-0.9,2.06-2.04v-10.5
			c0-7.29,28.5-7.31,28.5,0v10.5c0,1.14,0.93,2.04,2.06,2.04c3.04,0,5.5,2.44,5.56,5.46c0.38,4.97,0.66,9.19,0.9,12.93
			c0.73,10.57,1.12,16.41,2.2,18.9c0.61,1.41,1.12,1.58,5.49,1.71c1.81,0.06,4.06,0.12,6.81,0.45c2.99,0.07,5.41,2.54,5.41,5.55
			v12.15c0,1.62,1.3,2.93,2.92,2.93h11.31c2.31,0,4.21,1.88,4.21,4.22c0,0,0,3.18,0,4.23c0,0.78,0.32,3.15,0.88,3.7
			c0.55,0.56,1.3,0.86,2.08,0.86c36.31,0.53,57.82,0.21,92.98-2.11c1.59-0.04,2.86-1.32,2.86-2.92v-5.81c0-2.12,1.59-3.93,3.69-4.2
			l0.06-0.01h0.06c0,0,11.74-0.85,11.79-0.87h0.06c0.04,0,0.06,0.02,0.07,0c0.04-0.02,0-0.07,0-0.11
			c0.01-0.04,0.56-11.59,0.56-11.59c0.01-5.6,3.76-6.26,6.78-6.81c0.91-0.16,1.86-0.33,2.85-0.61c2.7-0.79,3.28-1.67,3.44-2.29
			c0.29-2.92-0.18-41.96-0.58-67.65v-0.03c0-2.08,1.48-3.84,3.55-4.17l8.22-1.35l0.17-0.02h0.18v-0.2
			C409.26,25.47,409.11,24.03,407.71,14.09z"/>
	</g>
	<g>
		<path fill="#A5B7BF" d="M173.83,85.83c-0.23,1.26-2.47,2.19-3.87,2.19s-4.99,0-6.16,0s-2.11,0.87-2.11,1.93
			c0,1.07,0,15.97,0,17.63c0,1.66-1.46,3-3.28,3c-1.81,0-11.56,0-12.72,0c-1.16,0-2.11,0.87-2.11,1.93c0,1.07,0,8.23,0,9.89
			c0,4.83-90.21,6.52-90.21,0c0-1.66-0.53-9.79-0.53-10.85c0-1.07-0.94-1.94-2.11-1.94c-1.17,0-1.74-0.48-7.27-0.48
			S38.59,74.79,38.6,74.3c0.42-21.52-0.42-33.09,4.42-38.18c5.03-9.21,123.94-8.84,130.18-1.69
			C176.76,37.3,176.04,73.49,173.83,85.83z"/>
	</g>
	<g>
		<path fill="#A5B7BF" d="M241.08,85.83c0.23,1.26,2.47,2.19,3.87,2.19s4.99,0,6.16,0s2.11,0.87,2.11,1.93c0,1.07,0,15.97,0,17.63
			c0,1.66,1.46,3,3.28,3c1.81,0,11.56,0,12.72,0c1.16,0,2.11,0.87,2.11,1.93c0,1.07,0,8.23,0,9.89c0,4.83,90.21,6.52,90.21,0
			c0-1.66,0.53-9.79,0.53-10.85c0-1.07,0.94-1.94,2.11-1.94c1.17,0,1.74-0.48,7.27-0.48s4.87-34.35,4.86-34.84
			c-0.42-21.52,0.42-33.09-4.42-38.18c-5.03-9.21-123.94-8.84-130.18-1.69C238.14,37.3,238.87,73.49,241.08,85.83z"/>
	</g>
	<g class="open" enable-background="new    ">
		<path fill="#2D2D2D" d="M132.59,62.18h-18.5v-18.5c0-0.39-0.31-0.7-0.7-0.7H92.67c-0.39,0-0.7,0.31-0.7,0.7V64.4
			c0,0.39,0.31,0.7,0.7,0.7h18.5v16.28h-18.5c-0.39,0-0.7,0.32-0.7,0.7v20.72c0,0.39,0.31,0.7,0.7,0.7h20.72
			c0.39,0,0.7-0.31,0.7-0.7v-18.5h18.5c0.39,0,0.7-0.31,0.7-0.7V62.88C133.29,62.5,132.97,62.18,132.59,62.18z"/>
		<path fill="#2D2D2D" d="M282.32,62.18h18.5v-18.5c0-0.39,0.31-0.7,0.7-0.7h20.72c0.39,0,0.7,0.31,0.7,0.7V64.4
			c0,0.39-0.32,0.7-0.7,0.7h-18.5v16.28h18.5c0.39,0,0.7,0.32,0.7,0.7v20.72c0,0.39-0.32,0.7-0.7,0.7h-20.72
			c-0.39,0-0.7-0.31-0.7-0.7v-18.5h-18.5c-0.39,0-0.7-0.31-0.7-0.7V62.88C281.61,62.5,281.93,62.18,282.32,62.18z"/>
	</g>
	<g class="close" enable-background="new    ">
		<path fill="#2D2D2D" d="M101.29,84.64h-8.5c-0.39,0-0.7-0.31-0.7-0.7V63.22c0-0.39,0.31-0.7,0.7-0.7h39.13
			c0.39,0,0.7,0.31,0.7,0.7v20.72c0,0.39-0.31,0.7-0.7,0.7h-8.5H101.29z"/>
		<path fill="#2D2D2D" d="M290.98,61.85h-8.64c-0.39,0-0.71,0.31-0.71,0.7v20.72c0,0.39,0.32,0.7,0.71,0.7h39.77
			c0.39,0,0.71-0.31,0.71-0.7V62.55c0-0.39-0.32-0.7-0.71-0.7h-8.64H290.98z"/>
	</g>
</g>
<g class="glint-one">
	<g>
		<path fill="#F2F2F2" d="M38.6,74.22c-0.01,0.49-0.67,34.84,4.86,34.84s6.1,0.48,7.27,0.48c1.17,0,2.11,0.87,2.11,1.94
			c0,1.07,0.53,9.19,0.53,10.85c0,3.86,31.61,4.84,57.41,4L38.9,54.44C38.74,59.82,38.76,66.35,38.6,74.22z"/>
	</g>
	<g>
		<path fill="#F2F2F2" d="M241.08,85.94c0.23,1.26,2.47,2.39,3.87,2.39s4.99,0,6.16,0s1.85,0.47,1.85,1.54c0,1.07,0,15.97,0,17.63
			s1.72,2.83,3.54,2.83c1.81,0,11.56,0,12.72,0c1.16,0,1.74,1.04,1.74,2.11s0,8.22,0,9.89c0,2.54,25.23,4.22,48.93,4.28
			l-80.49-80.49C238.69,58.61,239.6,77.68,241.08,85.94z"/>
	</g>
</g>
<g class="glint-two">
	<g>
		<path fill="#F2F2F2" d="M173.83,85.94c2.21-12.34,2.94-48.63-0.62-51.49c-3.19-3.65-35.85-5.39-67.67-5.12l58.86,59
			c1.5,0,4.36,0,5.57,0C171.36,88.33,173.6,87.21,173.83,85.94z"/>
	</g>
	<g>
		<path fill="#F2F2F2" d="M376.3,74.22c-0.42-21.52,0.42-33.09-4.42-38.18c-2.32-4.24-28.79-6.45-57.28-6.9l61.42,61.42
			C376.46,82.35,376.31,74.45,376.3,74.22z"/>
	</g>
</g>
<g class="glint-three">
	<g>
		<path fill="#F2F2F2" d="M43.02,36.04c-3.08,3.22-3.86,9.07-4.13,18.4l72.07,71.89c17.78-0.58,32.98-2.03,32.98-4
			c0-1.66,0-8.82,0-9.89s0.58-2.11,1.74-2.11c1.17,0,10.92,0,12.72,0c1.81,0,3.54-1.17,3.54-2.83s0-16.57,0-17.63
			c0-1.07,0.69-1.54,1.85-1.54c0.16,0,0.36,0,0.59,0l-58.86-59.05C75.13,29.53,45.48,31.55,43.02,36.04z"/>
	</g>
	<g>
		<path fill="#F2F2F2" d="M314.6,29.14c-33.38-0.53-69.53,1.35-72.9,5.21c-1.17,0.95-1.88,5.53-2.22,11.67l80.58,80.59
			c21.28,0.05,41.46-1.19,41.46-4.28c0-1.66,0.53-9.79,0.53-10.85c0-1.07,0.94-1.94,2.11-1.94c1.17,0,1.74-0.48,7.27-0.48
			c2.9,0,4.1-9.44,4.58-18.49L314.6,29.14z"/>
	</g>
</g>
</svg>
