<!-- Generated by IcoMoon.io -->
<svg version="1.1" xmlns="http://www.w3.org/2000/svg" width="58" height="32" viewBox="0 0 58 32">
<title>logo</title>
<path fill="#231f20" d="M18.614 7.359v2.752c0 0.086-0.071 0.157-0.157 0.157h-2.595v2.594c0 0.086-0.069 0.157-0.158 0.157h-2.751c-0.086 0-0.157-0.070-0.157-0.157v-2.752c0-0.086 0.070-0.158 0.157-0.158h2.594v-2.436h-2.594c-0.087 0-0.157-0.070-0.157-0.157v-2.752c0-0.086 0.069-0.157 0.157-0.157h2.751c0.086 0 0.158 0.071 0.158 0.157v2.595h2.595c0.086 0 0.157 0.070 0.157 0.157z"></path>
<path fill="#231f20" d="M42.002 7.517v2.437h2.595c0.086 0 0.156 0.071 0.156 0.158v2.752c0 0.086-0.070 0.157-0.156 0.157h-2.752c-0.086 0-0.157-0.070-0.157-0.157v-2.594h-2.596c-0.085 0-0.157-0.070-0.157-0.157v-2.752c0-0.087 0.072-0.157 0.157-0.157h2.596v-2.596c0-0.086 0.070-0.157 0.157-0.157h2.752c0.086 0 0.156 0.071 0.156 0.157v2.752c0 0.086-0.070 0.157-0.156 0.157h-2.595z"></path>
<path fill="#198bca" d="M57.393 2.593h-7.295v-2.593h-16.901v2.751h-8.843v-2.751h-16.903v2.593h-7.294c-0.087 0-0.158 0.071-0.158 0.158v2.752c0 0.086 0.070 0.157 0.158 0.157h4.385v8.097c0 0.086 0.069 0.158 0.157 0.158h2.594v2.594c0 0.087 0.070 0.157 0.157 0.157h2.594v2.595c0 0.086 0.070 0.156 0.157 0.156h8.256c0.086 0 0.157-0.070 0.157-0.156v-2.595h2.594c0.086 0 0.157-0.069 0.157-0.157v-2.594h2.594c0.086 0 0.157-0.070 0.157-0.158v-2.751h2.594v-5.503h4.128v5.503h2.593v2.751c0 0.086 0.071 0.158 0.157 0.158h2.593v2.594c0 0.087 0.071 0.157 0.157 0.157h2.594v2.595c0 0.086 0.072 0.156 0.157 0.156h8.255c0.087 0 0.157-0.069 0.157-0.156v-2.595h2.593c0.087 0 0.157-0.069 0.157-0.157v-2.594h2.593c0.086 0 0.157-0.070 0.157-0.158v-8.097h4.386c0.087 0 0.157-0.070 0.157-0.157v-2.752c0.002-0.086-0.068-0.158-0.155-0.158zM23.96 10.849h-2.751c-0.087 0-0.157 0.071-0.157 0.158v2.594h-2.593c-0.087 0-0.157 0.071-0.157 0.157v2.594h-7.939v-2.594c0-0.086-0.071-0.157-0.158-0.157h-2.596v-10.85h16.352v8.098zM49.942 13.601h-2.595c-0.086 0-0.157 0.071-0.157 0.157v2.594h-7.939v-2.594c0-0.086-0.070-0.157-0.157-0.157h-2.593v-2.594c0-0.086-0.071-0.158-0.157-0.158h-2.751v-8.098h16.351v10.85z"></path>
<path fill="#a5b7bf" d="M33.59 2.751v8.097h2.751c0.086 0 0.157 0.071 0.157 0.158v2.594h2.593c0.087 0 0.157 0.071 0.157 0.157v2.594h7.939v-2.594c0-0.086 0.071-0.157 0.157-0.157h2.595v-10.849h-16.35zM44.753 7.359c0 0.086-0.070 0.157-0.156 0.157h-2.595v2.437h2.595c0.086 0 0.156 0.071 0.156 0.158v2.752c0 0.086-0.070 0.157-0.156 0.157h-2.752c-0.086 0-0.157-0.070-0.157-0.157v-2.594h-2.596c-0.085 0-0.157-0.070-0.157-0.157v-2.752c0-0.087 0.072-0.157 0.157-0.157h2.596v-2.596c0-0.086 0.070-0.157 0.157-0.157h2.752c0.086 0 0.156 0.071 0.156 0.157v2.752z"></path>
<path fill="#a5b7bf" d="M7.608 2.751v10.85h2.595c0.086 0 0.158 0.071 0.158 0.157v2.594h7.939v-2.594c0-0.086 0.070-0.157 0.157-0.157h2.593v-2.594c0-0.086 0.070-0.158 0.157-0.158h2.751v-8.098h-16.351zM18.614 10.111c0 0.086-0.071 0.157-0.157 0.157h-2.595v2.594c0 0.086-0.069 0.157-0.158 0.157h-2.751c-0.086 0-0.157-0.070-0.157-0.157v-2.752c0-0.086 0.070-0.158 0.157-0.158h2.594v-2.436h-2.594c-0.087 0-0.157-0.070-0.157-0.157v-2.752c0-0.086 0.069-0.157 0.157-0.157h2.751c0.086 0 0.158 0.071 0.158 0.157v2.595h2.595c0.086 0 0.157 0.069 0.157 0.157v2.752z"></path>
<path fill="#a5b7bf" d="M1.075 31.7v-0.556c0-0.168 0.137-0.3 0.3-0.3h1.71c0.168 0 0.305-0.137 0.305-0.305v-5.191c0-0.157 0.153-0.3 0.3-0.3h1.72c0.157 0 0.29 0.152 0.29 0.3v5.191c0 0.168-0.143 0.305-0.29 0.305h-0.565c-0.158 0-0.3 0.132-0.3 0.3v0.556c0 0.167-0.137 0.3-0.3 0.3h-2.87c-0.168 0.001-0.3-0.137-0.3-0.3z"></path>
<path fill="#a5b7bf" d="M10.108 31.7v-6.352c0-0.157 0.137-0.3 0.305-0.3h4.031c0.158 0 0.305 0.152 0.305 0.3v0.565c0 0.157-0.148 0.29-0.305 0.29h-1.72c-0.158 0-0.3 0.148-0.3 0.305v0.56c0 0.157 0.153 0.305 0.3 0.305h1.72c0.158 0 0.305 0.143 0.305 0.29v0.565c0 0.157-0.148 0.3-0.305 0.3h-1.72c-0.158 0-0.3 0.137-0.3 0.3v1.71c0 0.168 0.153 0.305 0.3 0.305h1.72c0.158 0 0.305 0.132 0.305 0.3v0.556c0 0.167-0.148 0.3-0.305 0.3h-4.031c-0.168 0.002-0.305-0.136-0.305-0.299z"></path>
<path fill="#a5b7bf" d="M19.146 31.7v-6.352c0-0.157 0.137-0.3 0.305-0.3h4.031c0.157 0 0.305 0.152 0.305 0.3v0.565c0 0.157 0.143 0.29 0.29 0.29h0.565c0.158 0 0.3 0.148 0.3 0.305v1.72c0 0.157-0.153 0.3-0.3 0.3h-0.565c-0.157 0-0.29 0.137-0.29 0.3v0.555c0 0.157 0.143 0.3 0.29 0.3h0.565c0.158 0 0.3 0.137 0.3 0.305v1.711c0 0.167-0.153 0.3-0.3 0.3h-1.72c-0.157 0-0.305-0.137-0.305-0.3v-1.711c0-0.168-0.143-0.305-0.29-0.305h-0.565c-0.158 0-0.3 0.137-0.3 0.305v1.711c0 0.167-0.137 0.3-0.3 0.3h-1.711c-0.168 0.001-0.304-0.137-0.304-0.3zM22.616 28.228v-1.72c0-0.157-0.143-0.305-0.29-0.305h-0.565c-0.158 0-0.3 0.148-0.3 0.305v1.72c0 0.157 0.153 0.3 0.3 0.3h0.565c0.157 0 0.29-0.153 0.29-0.3z"></path>
<path fill="#a5b7bf" d="M30.499 31.7v-0.556c0-0.168-0.137-0.3-0.306-0.3h-0.549c-0.169 0-0.306-0.137-0.306-0.305v-4.031c0-0.157 0.137-0.305 0.306-0.305h0.549c0.169 0 0.306-0.143 0.306-0.29v-0.565c0-0.157 0.153-0.3 0.3-0.3h2.876c0.157 0 0.306 0.152 0.306 0.3v0.565c0 0.157 0.142 0.29 0.29 0.29h0.565c0.157 0 0.3 0.148 0.3 0.305v4.031c0 0.168-0.152 0.305-0.3 0.305h-0.565c-0.157 0-0.29 0.132-0.29 0.3v0.556c0 0.167-0.149 0.3-0.306 0.3h-2.876c-0.157 0.001-0.3-0.137-0.3-0.3zM32.81 30.539v-4.031c0-0.157-0.144-0.305-0.29-0.305h-0.565c-0.158 0-0.301 0.148-0.301 0.305v4.031c0 0.168 0.153 0.305 0.301 0.305h0.565c0.157 0 0.29-0.137 0.29-0.305z"></path>
<path fill="#a5b7bf" d="M39.531 31.7v-6.352c0-0.157 0.137-0.3 0.306-0.3h0.549c0.169 0 0.306 0.152 0.306 0.3v0.565c0 0.157 0.153 0.29 0.3 0.29h0.556c0.168 0 0.3 0.148 0.3 0.305v0.56c0 0.157 0.153 0.305 0.301 0.305h0.565c0.157 0 0.29-0.148 0.29-0.305v-0.56c0-0.157 0.147-0.305 0.304-0.305h0.56c0.157 0 0.306-0.143 0.306-0.29v-0.565c0-0.157 0.142-0.3 0.29-0.3h1.719c0.157 0 0.301 0.152 0.301 0.3v6.352c0 0.167-0.153 0.3-0.301 0.3h-1.719c-0.157 0-0.29-0.137-0.29-0.3v-2.871c0-0.169-0.149-0.3-0.306-0.3h-0.56c-0.157 0-0.304 0.137-0.304 0.3v0.555c0 0.157-0.144 0.3-0.29 0.3h-0.565c-0.158 0-0.301-0.153-0.301-0.3v-0.555c0-0.169-0.137-0.3-0.3-0.3h-0.556c-0.157 0-0.3 0.137-0.3 0.3v2.871c0 0.167-0.137 0.3-0.306 0.3h-0.549c-0.169 0.001-0.306-0.137-0.306-0.3z"></path>
<path fill="#a5b7bf" d="M50.88 31.7v-6.352c0-0.157 0.137-0.3 0.305-0.3h4.031c0.157 0 0.305 0.152 0.305 0.3v0.565c0 0.157-0.148 0.29-0.305 0.29h-1.72c-0.157 0-0.3 0.148-0.3 0.305v0.56c0 0.157 0.152 0.305 0.3 0.305h1.72c0.157 0 0.305 0.143 0.305 0.29v0.565c0 0.157-0.148 0.3-0.305 0.3h-1.72c-0.157 0-0.3 0.137-0.3 0.3v1.71c0 0.168 0.152 0.305 0.3 0.305h1.72c0.157 0 0.305 0.132 0.305 0.3v0.556c0 0.167-0.148 0.3-0.305 0.3h-4.031c-0.169 0.002-0.305-0.136-0.305-0.299z"></path>
</svg>
